0
SECTION
2
HEADER
9
$INSUNITS
70
1
9
$ACADVER
1
AC1014
9
$HANDSEED
5
FFFF
0
ENDSEC
0
SECTION
2
TABLES
0
TABLE
2
VPORT
5
8
100
AcDbSymbolTable
0
ENDTAB
0
TABLE
2
LTYPE
5
5
100
AcDbSymbolTable
0
LTYPE
5
14
100
AcDbSymbolTableRecord
100
AcDbLinetypeTableRecord
2
BYBLOCK
70
0
0
LTYPE
5
15
100
AcDbSymbolTableRecord
100
AcDbLinetypeTableRecord
2
BYLAYER
70
0
0
ENDTAB
0
TABLE
2
LAYER
5
2
100
AcDbSymbolTable
70
2
0
LAYER
5
50
100
AcDbSymbolTableRecord
100
AcDbLayerTableRecord
2
0
70
0
6
CONTINUOUS
0
ENDTAB
0
TABLE
2
STYLE
5
3
100
AcDbSymbolTable
70
1
0
STYLE
5
11
100
AcDbSymbolTableRecord
100
AcDbTextStyleTableRecord
2
STANDARD
70
0
0
ENDTAB
0
TABLE
2
VIEW
5
6
100
AcDbSymbolTable
70
0
0
ENDTAB
0
TABLE
2
UCS
5
7
100
AcDbSymbolTable
70
0
0
ENDTAB
0
TABLE
2
APPID
5
9
100
AcDbSymbolTable
70
2
0
APPID
5
12
100
AcDbSymbolTableRecord
100
AcDbRegAppTableRecord
2
ACAD
70
0
0
ENDTAB
0
TABLE
2
DIMSTYLE
5
A
100
AcDbSymbolTable
70
1
0
ENDTAB
0
TABLE
2
BLOCK_RECORD
5
1
100
AcDbSymbolTable
70
1
0
BLOCK_RECORD
5
1F
100
AcDbSymbolTableRecord
100
AcDbBlockTableRecord
2
*MODEL_SPACE
0
BLOCK_RECORD
5
1B
100
AcDbSymbolTableRecord
100
AcDbBlockTableRecord
2
*PAPER_SPACE
0
ENDTAB
0
ENDSEC
0
SECTION
2
BLOCKS
0
BLOCK
5
20
100
AcDbEntity
100
AcDbBlockBegin
2
*MODEL_SPACE
0
ENDBLK
5
21
100
AcDbEntity
100
AcDbBlockEnd
0
BLOCK
5
1C
100
AcDbEntity
100
AcDbBlockBegin
2
*PAPER_SPACE
0
ENDBLK
5
1D
100
AcDbEntity
100
AcDbBlockEnd
0
ENDSEC
0
SECTION
2
ENTITIES
0
LINE
5
100
100
AcDbEntity
8
0
100
AcDbLine
10
-5.9623860132576638
20
12.327714675116715
30
0
11
-5.9623860132575865
21
8.3820736262902678
31
0
0
LINE
5
101
100
AcDbEntity
8
0
100
AcDbLine
10
-5.9623860132575865
20
8.3820736262902678
30
0
11
8.3853826375220493
21
8.3820736262905484
31
-2.2067692351571921e-45
0
LINE
5
102
100
AcDbEntity
8
0
100
AcDbLine
10
8.3853826375220493
20
8.3820736262905484
30
-2.2067692351571921e-45
11
8.3853826375219729
21
12.327714675116995
31
0
0
SPLINE
5
103
100
AcDbEntity
8
0
100
AcDbSpline
70
0
71
3
72
35
73
31
74
0
42
0.000000001
43
0.0000000001
44
0.0000000001
40
-20.023324938764002
40
-20.023324938764002
40
-20.023324938764002
40
-20.023324938764002
40
-19.2502724419261
40
-19.2502724419261
40
-19.2502724419261
40
-17.458583052407601
40
-17.458583052407601
40
-17.458583052407601
40
-15.6668936628891
40
-15.6668936628891
40
-15.6668936628891
40
-13.875204273370599
40
-13.875204273370599
40
-13.875204273370599
40
-12.0835148838521
40
-12.0835148838521
40
-12.0835148838521
40
-10.29182549433362
40
-10.29182549433362
40
-10.29182549433362
40
-8.5001361048151196
40
-8.5001361048151196
40
-8.5001361048151196
40
-6.7084467152966196
40
-6.7084467152966196
40
-6.7084467152966196
40
-4.9167573257781196
40
-4.9167573257781196
40
-4.9167573257781196
40
-4.1437050612412873
40
-4.1437050612412873
40
-4.1437050612412873
40
-4.1437050612412873
10
8.3853826375219711
20
12.327714675116994
30
0
10
8.2145311434410679
20
12.125133197894989
30
0
10
8.035112160808664
20
11.929771961486779
30
0
10
7.8477002985950346
20
11.742350137262719
30
0
10
7.4133392955877966
20
11.307966045488349
30
0
10
6.9362967734397998
20
10.916482443294427
30
0
10
6.4255235717197596
20
10.575199201806937
30
0
10
5.9147503774181516
20
10.233915965276219
30
0
10
5.3705185578911632
20
9.9430150776356037
30
0
10
4.8029825521514491
20
9.7079331150670409
30
0
10
4.2354465436762414
20
9.4728511513653988
30
0
10
3.6449151516342435
20
9.2937159608395756
30
0
10
3.0424208205455656
20
9.1738725443994174
30
0
10
2.4399264902907287
20
9.0540291281251175
30
0
10
1.8257956106930522
20
8.9935424257295935
30
0
10
1.2114981926821236
20
8.9935424335486953
30
0
10
0.59720077467120336
20
8.9935424413677989
30
0
10
-0.016930103386647313
20
9.054029159397281
30
0
10
-0.61942443059061258
20
9.1738725910093066
30
0
10
-1.2219187586284255
20
9.2937160227871942
30
0
10
-1.8124501461101652
20
9.4728512283462063
30
0
10
-2.3799861486008802
20
9.7079332064956461
30
0
10
-2.9475221483561027
20
9.9430151835120029
30
0
10
-3.4917539604776198
20
10.233916085007163
30
0
10
-4.0025271460911673
20
10.575199334540669
30
0
10
-4.5133003391231421
20
10.916482589030945
30
0
10
-4.9903428513051136
20
11.307966203368972
30
0
10
-5.4247038432542114
20
11.742350306200892
30
0
10
-5.6121156443796592
20
11.929772078875937
30
0
10
-5.7915345705254628
20
12.125133258760096
30
0
10
-5.962386013257662
20
12.327714675116715
30
0
0
ENDSEC
0
SECTION
2
OBJECTS
0
DICTIONARY
5
C
100
AcDbDictionary
3
ACAD_GROUP
350
D
3
ACAD_MLINESTYLE
350
17
0
DICTIONARY
5
D
100
AcDbDictionary
0
DICTIONARY
5
1A
330
C
100
AcDbDictionary
0
DICTIONARY
5
17
100
AcDbDictionary
0
ENDSEC
0
EOF
